<?xml version="1.0" standalone="no"?>
<!DOCTYPE svg PUBLIC "-//W3C//DTD SVG 20010904//EN"
 "http://www.w3.org/TR/2001/REC-SVG-20010904/DTD/svg10.dtd">
<svg version="1.0" xmlns="http://www.w3.org/2000/svg"
 width="700.000000pt" height="700.000000pt" viewBox="0 0 700.000000 700.000000"
 preserveAspectRatio="xMidYMid meet">
<metadata>
Created by potrace 1.11, written by Peter Selinger 2001-2013
</metadata>
<g transform="translate(0.000000,700.000000) scale(0.100000,-0.100000)"
fill="#000000" stroke="none">
<path d="M1801 6596 c-53 -30 -50 143 -51 -2753 0 -2067 3 -2698 12 -2718 26
-58 -79 -55 1738 -55 1817 0 1712 -3 1738 55 17 36 17 5396 1 5428 -23 45 -49
57 -132 57 -74 0 -80 -2 -108 -29 -38 -39 -39 -87 -3 -130 14 -17 32 -31 40
-31 12 0 14 -101 14 -680 l0 -680 -1555 0 -1555 0 0 675 0 674 29 16 c67 34
82 106 32 156 -27 27 -35 29 -103 29 -41 -1 -83 -6 -97 -14z m3257 -2998 l-3
-1263 -1555 0 -1555 0 -3 1263 -2 1262 1560 0 1560 0 -2 -1262z m-8 -1892 l0
-434 -482 -6 c-266 -4 -964 -6 -1553 -4 l-1070 3 -3 438 -2 437 1555 0 1555 0
0 -434z"/>
<path d="M3442 4373 c-32 -15 -66 -50 -108 -107 l-20 -28 -76 12 c-93 14 -139
6 -174 -28 -24 -25 -26 -31 -22 -108 l3 -82 -35 -11 c-52 -16 -164 -104 -221
-175 -61 -74 -123 -198 -143 -286 -18 -76 -21 -207 -5 -282 6 -29 31 -96 56
-148 39 -82 58 -107 137 -185 181 -178 396 -265 662 -265 468 0 831 281 879
681 13 109 -29 283 -97 397 -73 124 -247 272 -318 272 l-30 0 6 53 c8 69 -9
132 -43 155 -31 19 -157 21 -205 3 -24 -9 -29 -7 -47 22 -28 45 -91 104 -124
116 -36 14 -35 14 -75 -6z m71 -293 c17 -46 57 -80 94 -80 10 0 32 7 48 16 17
9 40 20 53 25 20 8 21 6 13 -9 -47 -88 -248 -128 -366 -74 -49 23 -105 67
-105 84 0 5 22 -3 50 -17 59 -30 75 -31 116 -6 23 14 37 34 49 71 19 57 24 56
48 -10z m439 -259 c56 -33 143 -133 177 -203 91 -186 54 -385 -98 -537 -78
-78 -151 -123 -263 -162 -252 -86 -543 -43 -745 113 -137 105 -218 284 -195
431 23 147 94 261 217 352 l76 56 37 -29 c95 -75 196 -107 337 -106 97 0 118
3 180 28 74 31 138 70 169 105 l19 21 26 -23 c14 -13 43 -34 63 -46z"/>
<path d="M2169 6581 c-21 -22 -29 -39 -29 -66 0 -27 8 -44 29 -66 l29 -29
1305 0 1305 0 26 31 c36 43 35 91 -3 130 l-29 29 -1302 0 -1302 0 -29 -29z"/>
</g>
</svg>
